<svg width="32" height="32" viewBox="0 0 32 32" fill="none" xmlns="http://www.w3.org/2000/svg">
<rect width="32" height="32" fill="#DCDCDC"/>
<g id="elements">
<rect width="1097" height="927" transform="translate(-974 -131)" fill="#F7F7F7"/>
<g id="favicon">
<rect id="Rectangle 56" width="32" height="32" rx="16" fill="#32B4DD"/>
<path id="Union" fill-rule="evenodd" clip-rule="evenodd" d="M10.5226 22V7.45459H8.76123V22H10.5226ZM20.6788 13.4148C21.2849 13.8125 21.6305 14.3713 21.7158 15.091H23.4203C23.3966 14.3571 23.1694 13.7013 22.7385 13.1236C22.3124 12.546 21.7347 12.0914 21.0055 11.76C20.2764 11.4238 19.443 11.2557 18.5055 11.2557C17.5775 11.2557 16.7371 11.4262 15.9842 11.7671C15.2361 12.1033 14.6395 12.5767 14.1945 13.1875C13.7541 13.7936 13.534 14.5038 13.534 15.3182C13.534 16.2983 13.8654 17.0914 14.5283 17.6975C15.1912 18.3035 16.0908 18.7699 17.2271 19.0966L19.0169 19.608C19.5283 19.75 20.0041 19.9158 20.4445 20.1052C20.8848 20.2946 21.2399 20.5408 21.5098 20.8438C21.7797 21.1468 21.9146 21.5398 21.9146 22.0228C21.9146 22.5531 21.7584 23.0171 21.4459 23.4148C21.1334 23.8078 20.7096 24.1156 20.1746 24.3381C19.6395 24.5559 19.0359 24.6648 18.3635 24.6648C17.7859 24.6648 17.2461 24.5796 16.7442 24.4091C16.247 24.2339 15.8351 23.9688 15.5084 23.6137C15.1864 23.2538 15.0018 22.7993 14.9544 22.25H13.1362C13.193 23.0455 13.4369 23.7439 13.8678 24.3452C14.3034 24.9465 14.9 25.4153 15.6575 25.7515C16.4198 26.0876 17.3218 26.2557 18.3635 26.2557C19.4809 26.2557 20.4303 26.0687 21.2115 25.6946C21.9975 25.3206 22.5941 24.8163 23.0013 24.1819C23.4132 23.5474 23.6192 22.8372 23.6192 22.0512C23.6192 21.3694 23.4795 20.7941 23.2002 20.3253C22.9208 19.8566 22.5657 19.4731 22.1348 19.1748C21.7087 18.8717 21.2612 18.6326 20.7925 18.4574C20.3285 18.2822 19.9071 18.1449 19.5283 18.0455L18.051 17.6478C17.7811 17.5767 17.4852 17.4844 17.1632 17.3708C16.8412 17.2524 16.5335 17.1033 16.2399 16.9233C15.9464 16.7387 15.7049 16.509 15.5155 16.2344C15.3308 15.9551 15.2385 15.6213 15.2385 15.233C15.2385 14.769 15.3711 14.3547 15.6362 13.9901C15.9061 13.6255 16.2802 13.3391 16.7584 13.1307C17.2413 12.9224 17.8048 12.8182 18.4487 12.8182C19.3294 12.8182 20.0728 13.0171 20.6788 13.4148Z" fill="black"/>
</g>
</g>
</svg>
