<svg width="50" height="50" viewBox="0 0 50 50" fill="none" xmlns="http://www.w3.org/2000/svg">
<g id="calendar">
<path id="Vector" d="M16.1667 43.75H40.1667C41.2276 43.75 42.245 43.311 42.9952 42.5296C43.7453 41.7482 44.1667 40.6884 44.1667 39.5833V35.4167H20.1667V39.5833C20.1667 40.6884 19.7453 41.7482 18.9952 42.5296C18.245 43.311 17.2276 43.75 16.1667 43.75ZM16.1667 43.75C15.1059 43.75 14.0885 43.311 13.3383 42.5296C12.5882 41.7482 12.1667 40.6884 12.1667 39.5833V10.4167C12.1667 9.3116 11.7453 8.25179 10.9952 7.47039C10.245 6.68899 9.22761 6.25 8.16675 6.25M8.16675 6.25C7.10588 6.25 6.08847 6.68899 5.33832 7.47039C4.58818 8.25179 4.16675 9.3116 4.16675 10.4167V16.6667H12.1667M8.16675 6.25H34.1667C35.2276 6.25 36.245 6.68899 36.9952 7.47039C37.7453 8.25179 38.1667 9.3116 38.1667 10.4167V35.4167M30.1667 16.6667H20.1667M30.1667 25H20.1667" stroke="black" stroke-width="2" stroke-linecap="round" stroke-linejoin="round"/>
</g>
</svg>
