<svg width="40" height="40" viewBox="0 0 40 40" fill="none" xmlns="http://www.w3.org/2000/svg">
<g id="users">
<path id="Vector" d="M26.6666 35V31.6667C26.6666 29.8986 25.9642 28.2029 24.714 26.9526C23.4637 25.7024 21.768 25 19.9999 25H9.99992C8.23181 25 6.53612 25.7024 5.28587 26.9526C4.03563 28.2029 3.33325 29.8986 3.33325 31.6667V35" stroke="black" stroke-width="2" stroke-linecap="round" stroke-linejoin="round"/>
<path id="Vector_2" d="M14.9999 18.3333C18.6818 18.3333 21.6666 15.3486 21.6666 11.6667C21.6666 7.98477 18.6818 5 14.9999 5C11.318 5 8.33325 7.98477 8.33325 11.6667C8.33325 15.3486 11.318 18.3333 14.9999 18.3333Z" stroke="black" stroke-width="2" stroke-linecap="round" stroke-linejoin="round"/>
<path id="Vector_3" d="M36.6667 35V31.6667C36.6656 30.1896 36.174 28.7546 35.269 27.5872C34.364 26.4198 33.097 25.586 31.6667 25.2167" stroke="black" stroke-width="2" stroke-linecap="round" stroke-linejoin="round"/>
<path id="Vector_4" d="M26.6667 5.21666C28.1008 5.58383 29.3718 6.41783 30.2795 7.58718C31.1871 8.75653 31.6798 10.1947 31.6798 11.675C31.6798 13.1553 31.1871 14.5935 30.2795 15.7628C29.3718 16.9322 28.1008 17.7662 26.6667 18.1333" stroke="black" stroke-width="2" stroke-linecap="round" stroke-linejoin="round"/>
</g>
</svg>
